<svg
  viewBox="0 0 200.578 18.025"
  xmlns="http://www.w3.org/2000/svg"
  style="width:100%; height:auto;">
  <g
    id="svgGroup"
    stroke-linecap="round"
    fill-rule="nonzero"
    font-size="9pt"
    stroke="#ffffff"
    stroke-width="0.5"
    fill="#ffffff"
    style="stroke: #ffffff; stroke-width: 0.5; fill: #ffffff"
  >
    <path
      d="M 121.416 11.064 L 121.824 11.04 Q 121.368 12.12 120.564 12.564 Q 119.76 13.008 118.776 13.008 Q 117.648 13.008 116.976 12.492 Q 116.304 11.976 116.304 10.632 Q 116.304 9.936 116.556 9.444 Q 116.808 8.952 117.456 8.556 Q 118.104 8.16 119.352 7.8 Q 119.928 7.656 120.336 7.452 Q 120.744 7.248 120.96 7.056 Q 121.128 6.888 121.188 6.696 Q 121.248 6.504 121.248 6.264 Q 121.248 5.664 120.852 5.328 Q 120.456 4.992 119.544 4.992 Q 118.512 4.992 118.092 5.376 Q 117.672 5.76 117.672 6.528 L 117.672 7.248 L 116.544 7.248 L 116.544 6.504 Q 116.544 5.736 116.808 5.22 Q 117.072 4.704 117.732 4.452 Q 118.392 4.2 119.568 4.2 Q 120.72 4.2 121.356 4.464 Q 121.992 4.728 122.244 5.28 Q 122.496 5.832 122.496 6.672 L 122.496 10.944 Q 122.496 11.928 122.88 12.372 Q 123.264 12.816 123.864 12.816 Q 124.392 12.816 124.86 12.36 Q 125.328 11.904 125.604 10.896 Q 125.88 9.888 125.88 8.232 Q 125.88 6.264 125.196 4.8 Q 124.512 3.336 123.096 2.52 Q 121.68 1.704 119.496 1.704 Q 117.336 1.704 115.896 2.424 Q 114.456 3.144 113.724 4.8 A 11.158 11.158 0 0 0 112.992 9.24 Q 112.992 11.352 113.46 12.696 Q 113.928 14.04 114.792 14.76 Q 115.656 15.48 116.832 15.756 Q 118.008 16.032 119.424 16.056 Q 119.88 16.056 120.624 15.984 Q 121.368 15.912 122.184 15.78 Q 123 15.648 123.756 15.456 Q 124.512 15.264 124.992 15 L 124.992 15.816 Q 124.536 15.984 123.72 16.224 Q 122.904 16.464 121.776 16.62 Q 120.648 16.776 119.28 16.776 Q 116.496 16.776 114.924 15.9 Q 113.352 15.024 112.704 13.32 Q 112.056 11.616 112.056 9.192 Q 112.056 5.304 113.784 3.144 Q 115.512 0.984 119.352 0.984 Q 121.488 0.984 123.18 1.704 Q 124.872 2.424 125.844 3.996 Q 126.816 5.568 126.816 8.112 Q 126.816 9.648 126.456 10.872 Q 126.096 12.096 125.4 12.816 Q 124.704 13.536 123.648 13.536 Q 122.904 13.536 122.412 13.14 Q 121.92 12.744 121.692 12.168 Q 121.464 11.592 121.416 11.064 Z M 121.32 10.272 L 121.32 7.92 Q 120.984 8.04 120.468 8.208 Q 119.952 8.376 119.448 8.568 Q 118.728 8.856 118.296 9.12 Q 117.864 9.384 117.672 9.732 Q 117.48 10.08 117.48 10.656 Q 117.48 11.424 117.864 11.772 Q 118.248 12.12 119.136 12.12 Q 119.832 12.12 120.324 11.808 Q 120.816 11.496 121.068 11.076 Q 121.32 10.656 121.32 10.272 Z M 139.368 15.216 L 137.88 15.216 L 137.88 3.336 L 139.128 3.336 L 139.296 4.656 Q 139.56 3.96 140.172 3.552 Q 140.784 3.144 141.672 3.144 Q 143.064 3.144 143.628 3.72 Q 144.192 4.296 144.216 5.4 L 143.952 5.424 Q 144.192 4.392 144.876 3.768 Q 145.56 3.144 146.64 3.144 Q 148.128 3.144 148.668 3.84 Q 149.208 4.536 149.208 5.976 L 149.208 15.216 L 147.72 15.216 L 147.72 6.24 Q 147.72 5.088 147.372 4.668 Q 147.024 4.248 146.184 4.248 Q 145.392 4.248 144.864 4.716 Q 144.336 5.184 144.288 5.88 L 144.288 15.216 L 142.8 15.216 L 142.8 6.048 Q 142.8 5.064 142.452 4.656 Q 142.104 4.248 141.216 4.248 Q 140.4 4.248 139.98 4.632 Q 139.56 5.016 139.368 5.544 L 139.368 15.216 Z M 190.728 15.216 L 189.24 15.216 L 189.24 3.336 L 190.488 3.336 L 190.656 4.656 Q 190.92 3.96 191.532 3.552 Q 192.144 3.144 193.032 3.144 Q 194.424 3.144 194.988 3.72 Q 195.552 4.296 195.576 5.4 L 195.312 5.424 Q 195.552 4.392 196.236 3.768 Q 196.92 3.144 198 3.144 Q 199.488 3.144 200.028 3.84 Q 200.568 4.536 200.568 5.976 L 200.568 15.216 L 199.08 15.216 L 199.08 6.24 Q 199.08 5.088 198.732 4.668 Q 198.384 4.248 197.544 4.248 Q 196.752 4.248 196.224 4.716 Q 195.696 5.184 195.648 5.88 L 195.648 15.216 L 194.16 15.216 L 194.16 6.048 Q 194.16 5.064 193.812 4.656 Q 193.464 4.248 192.576 4.248 Q 191.76 4.248 191.34 4.632 Q 190.92 5.016 190.728 5.544 L 190.728 15.216 Z M 103.392 12.144 L 103.392 11.112 L 104.904 11.112 L 104.904 12.48 Q 104.904 13.608 105.288 14.04 Q 105.672 14.472 106.68 14.472 Q 107.568 14.472 107.988 14.04 Q 108.408 13.608 108.408 12.576 L 108.408 11.904 Q 108.408 11.352 108.24 10.956 Q 108.072 10.56 107.604 10.224 Q 107.136 9.888 106.296 9.552 Q 105.504 9.24 104.904 8.88 Q 104.304 8.52 103.956 7.968 Q 103.608 7.416 103.608 6.552 L 103.608 5.832 Q 103.608 4.56 104.34 3.852 Q 105.072 3.144 106.824 3.144 Q 107.976 3.144 108.66 3.456 Q 109.344 3.768 109.668 4.464 Q 109.992 5.16 109.992 6.264 L 109.992 7.272 L 108.528 7.272 L 108.528 6.12 Q 108.528 4.92 108.12 4.476 Q 107.712 4.032 106.824 4.032 Q 105.816 4.032 105.468 4.512 Q 105.12 4.992 105.12 5.712 L 105.12 6.36 Q 105.12 7.032 105.42 7.464 Q 105.72 7.896 106.272 8.184 Q 106.824 8.472 107.592 8.784 Q 108.288 9.072 108.828 9.396 Q 109.368 9.72 109.68 10.272 Q 109.992 10.824 109.992 11.784 L 109.992 12.336 Q 109.992 13.296 109.692 13.98 Q 109.392 14.664 108.672 15.024 Q 107.952 15.384 106.704 15.384 Q 105.408 15.384 104.688 15.06 Q 103.968 14.736 103.68 14.028 Q 103.392 13.32 103.392 12.144 Z M 22.44 15.216 L 20.952 15.216 L 20.952 3.336 L 22.176 3.336 L 22.368 4.608 Q 22.56 3.888 23.256 3.504 Q 23.952 3.12 24.696 3.12 Q 25.968 3.12 26.556 3.564 Q 27.144 4.008 27.312 4.716 Q 27.48 5.424 27.48 6.264 L 27.48 15.216 L 25.992 15.216 L 25.992 6.48 Q 25.992 6.048 25.968 5.64 Q 25.944 5.232 25.788 4.908 Q 25.632 4.584 25.272 4.392 Q 24.912 4.2 24.216 4.2 Q 23.616 4.2 23.244 4.428 Q 22.872 4.656 22.692 4.956 Q 22.512 5.256 22.44 5.52 L 22.44 15.216 Z M 79.224 15.216 L 77.736 15.216 L 77.736 3.336 L 78.96 3.336 L 79.152 4.608 Q 79.344 3.888 80.04 3.504 Q 80.736 3.12 81.48 3.12 Q 82.752 3.12 83.34 3.564 Q 83.928 4.008 84.096 4.716 Q 84.264 5.424 84.264 6.264 L 84.264 15.216 L 82.776 15.216 L 82.776 6.48 Q 82.776 6.048 82.752 5.64 Q 82.728 5.232 82.572 4.908 Q 82.416 4.584 82.056 4.392 Q 81.696 4.2 81 4.2 Q 80.4 4.2 80.028 4.428 Q 79.656 4.656 79.476 4.956 Q 79.296 5.256 79.224 5.52 L 79.224 15.216 Z M 88.104 15.216 L 86.616 15.216 L 86.616 3.336 L 87.84 3.336 L 88.032 4.608 Q 88.224 3.888 88.92 3.504 Q 89.616 3.12 90.36 3.12 Q 91.632 3.12 92.22 3.564 Q 92.808 4.008 92.976 4.716 Q 93.144 5.424 93.144 6.264 L 93.144 15.216 L 91.656 15.216 L 91.656 6.48 Q 91.656 6.048 91.632 5.64 Q 91.608 5.232 91.452 4.908 Q 91.296 4.584 90.936 4.392 Q 90.576 4.2 89.88 4.2 Q 89.28 4.2 88.908 4.428 Q 88.536 4.656 88.356 4.956 Q 88.176 5.256 88.104 5.52 L 88.104 15.216 Z M 172.152 12 L 172.152 6.144 Q 172.152 4.392 172.908 3.756 Q 173.664 3.12 175.416 3.12 Q 177.12 3.12 177.876 3.744 Q 178.632 4.368 178.632 6.048 L 178.632 7.608 L 177.144 7.608 L 177.144 6 Q 177.144 4.968 176.808 4.5 Q 176.472 4.032 175.416 4.032 Q 174.36 4.032 174 4.5 Q 173.64 4.968 173.64 6 L 173.64 12.384 Q 173.64 13.536 174 14.004 Q 174.36 14.472 175.464 14.472 Q 176.472 14.472 176.808 14.016 Q 177.144 13.56 177.144 12.384 L 177.144 10.776 L 178.632 10.776 L 178.632 12 Q 178.632 13.368 178.296 14.112 Q 177.96 14.856 177.264 15.144 Q 176.568 15.432 175.488 15.432 Q 174.312 15.432 173.568 15.156 Q 172.824 14.88 172.488 14.148 Q 172.152 13.416 172.152 12 Z M 129.792 17.832 L 129.792 16.968 Q 130.08 16.992 130.62 17.064 Q 131.16 17.136 131.592 17.136 Q 131.928 17.136 132.336 17.088 Q 132.744 17.04 133.14 16.824 Q 133.536 16.608 133.788 16.104 Q 134.04 15.6 134.04 14.712 L 134.04 13.08 Q 133.896 13.536 133.596 13.896 Q 133.296 14.256 132.816 14.46 Q 132.336 14.664 131.64 14.664 Q 131.184 14.664 130.716 14.568 Q 130.248 14.472 129.864 14.172 Q 129.48 13.872 129.252 13.236 Q 129.024 12.6 129.024 11.52 L 129.024 6.072 Q 129.024 4.488 129.648 3.792 Q 130.272 3.096 131.664 3.096 Q 132.288 3.096 132.804 3.264 Q 133.32 3.432 133.68 3.768 Q 134.04 4.104 134.232 4.608 L 133.968 4.608 L 134.208 3.336 L 135.504 3.336 L 135.504 14.208 Q 135.504 15.144 135.276 15.852 Q 135.048 16.56 134.616 17.052 Q 134.184 17.544 133.536 17.784 Q 132.888 18.024 132.048 18.024 Q 131.784 18.024 131.424 18 Q 131.064 17.976 130.716 17.952 Q 130.368 17.928 130.116 17.892 Q 129.864 17.856 129.792 17.832 Z M 134.016 11.064 L 134.016 5.256 Q 133.944 5.04 133.74 4.776 Q 133.536 4.512 133.164 4.32 Q 132.792 4.128 132.168 4.128 Q 131.28 4.128 130.896 4.56 Q 130.512 4.992 130.512 6.144 L 130.512 11.88 Q 130.512 12.504 130.68 12.888 Q 130.848 13.272 131.124 13.44 Q 131.4 13.608 131.688 13.656 Q 131.976 13.704 132.168 13.704 Q 132.96 13.704 133.356 13.308 Q 133.752 12.912 133.884 12.3 Q 134.016 11.688 134.016 11.064 Z M 12.024 12.744 L 12.024 11.592 Q 12.024 10.392 12.756 9.66 Q 13.488 8.928 14.76 8.352 Q 15.576 7.944 16.092 7.632 Q 16.608 7.32 16.872 6.936 Q 17.136 6.552 17.136 5.904 L 17.136 5.4 Q 17.136 4.824 16.896 4.512 Q 16.656 4.2 16.26 4.08 Q 15.864 3.96 15.432 3.96 Q 14.352 3.96 14.016 4.548 Q 13.68 5.136 13.68 6.288 L 13.68 7.296 L 12.312 7.296 L 12.312 6.144 Q 12.312 5.256 12.552 4.572 Q 12.792 3.888 13.464 3.492 Q 14.136 3.096 15.432 3.096 Q 16.8 3.096 17.484 3.408 Q 18.168 3.72 18.396 4.296 Q 18.624 4.872 18.624 5.664 L 18.624 15.216 L 17.16 15.216 L 17.136 13.728 Q 16.848 14.544 16.104 14.964 Q 15.36 15.384 14.496 15.384 Q 13.944 15.384 13.38 15.228 Q 12.816 15.072 12.42 14.508 Q 12.024 13.944 12.024 12.744 Z M 17.112 11.568 L 17.112 7.776 Q 16.872 8.16 16.32 8.472 Q 15.768 8.784 15.192 9.096 Q 14.376 9.576 13.932 10.092 Q 13.488 10.608 13.488 11.52 L 13.488 12.456 Q 13.488 13.32 13.728 13.728 Q 13.968 14.136 14.328 14.256 Q 14.688 14.376 15.048 14.376 Q 16.128 14.376 16.62 13.608 Q 17.112 12.84 17.112 11.568 Z M 151.248 12.744 L 151.248 11.592 Q 151.248 10.392 151.98 9.66 Q 152.712 8.928 153.984 8.352 Q 154.8 7.944 155.316 7.632 Q 155.832 7.32 156.096 6.936 Q 156.36 6.552 156.36 5.904 L 156.36 5.4 Q 156.36 4.824 156.12 4.512 Q 155.88 4.2 155.484 4.08 Q 155.088 3.96 154.656 3.96 Q 153.576 3.96 153.24 4.548 Q 152.904 5.136 152.904 6.288 L 152.904 7.296 L 151.536 7.296 L 151.536 6.144 Q 151.536 5.256 151.776 4.572 Q 152.016 3.888 152.688 3.492 Q 153.36 3.096 154.656 3.096 Q 156.024 3.096 156.708 3.408 Q 157.392 3.72 157.62 4.296 Q 157.848 4.872 157.848 5.664 L 157.848 15.216 L 156.384 15.216 L 156.36 13.728 Q 156.072 14.544 155.328 14.964 Q 154.584 15.384 153.72 15.384 Q 153.168 15.384 152.604 15.228 Q 152.04 15.072 151.644 14.508 Q 151.248 13.944 151.248 12.744 Z M 156.336 11.568 L 156.336 7.776 Q 156.096 8.16 155.544 8.472 Q 154.992 8.784 154.416 9.096 Q 153.6 9.576 153.156 10.092 Q 152.712 10.608 152.712 11.52 L 152.712 12.456 Q 152.712 13.32 152.952 13.728 Q 153.192 14.136 153.552 14.256 Q 153.912 14.376 154.272 14.376 Q 155.352 14.376 155.844 13.608 Q 156.336 12.84 156.336 11.568 Z M 3.72 11.976 L 3.72 6.048 Q 3.72 4.368 4.476 3.744 Q 5.232 3.12 6.984 3.12 Q 8.688 3.12 9.444 3.744 Q 10.2 4.368 10.2 6.048 L 10.2 9.12 L 5.208 9.12 L 5.208 12.48 Q 5.208 13.632 5.568 14.076 Q 5.928 14.52 7.032 14.52 Q 8.04 14.52 8.376 14.088 Q 8.712 13.656 8.712 12.48 L 8.712 10.944 L 10.2 10.944 L 10.2 11.952 Q 10.2 13.344 9.864 14.1 Q 9.528 14.856 8.844 15.144 Q 8.16 15.432 7.08 15.432 Q 5.88 15.432 5.136 15.156 Q 4.392 14.88 4.056 14.136 Q 3.72 13.392 3.72 11.976 Z M 5.208 6 L 5.208 8.352 L 8.712 8.352 L 8.712 6 Q 8.712 4.992 8.376 4.536 Q 8.04 4.08 6.984 4.08 Q 5.928 4.08 5.568 4.536 Q 5.208 4.992 5.208 6 Z M 95.208 11.976 L 95.208 6.048 Q 95.208 4.368 95.964 3.744 Q 96.72 3.12 98.472 3.12 Q 100.176 3.12 100.932 3.744 Q 101.688 4.368 101.688 6.048 L 101.688 9.12 L 96.696 9.12 L 96.696 12.48 Q 96.696 13.632 97.056 14.076 Q 97.416 14.52 98.52 14.52 Q 99.528 14.52 99.864 14.088 Q 100.2 13.656 100.2 12.48 L 100.2 10.944 L 101.688 10.944 L 101.688 11.952 Q 101.688 13.344 101.352 14.1 Q 101.016 14.856 100.332 15.144 Q 99.648 15.432 98.568 15.432 Q 97.368 15.432 96.624 15.156 Q 95.88 14.88 95.544 14.136 Q 95.208 13.392 95.208 11.976 Z M 96.696 6 L 96.696 8.352 L 100.2 8.352 L 100.2 6 Q 100.2 4.992 99.864 4.536 Q 99.528 4.08 98.472 4.08 Q 97.416 4.08 97.056 4.536 Q 96.696 4.992 96.696 6 Z M 29.544 12.024 L 29.544 6.096 Q 29.544 5.448 29.676 4.908 Q 29.808 4.368 30.12 3.972 Q 30.432 3.576 30.96 3.348 Q 31.488 3.12 32.304 3.12 Q 33.264 3.12 33.804 3.408 Q 34.344 3.696 34.584 4.104 L 34.584 0.096 L 36.072 0.096 L 36.072 15.216 L 35.04 15.216 L 34.896 14.088 Q 34.752 14.4 34.476 14.7 Q 34.2 15 33.732 15.204 Q 33.264 15.408 32.472 15.408 Q 31.584 15.408 31.008 15.18 Q 30.432 14.952 30.108 14.532 Q 29.784 14.112 29.664 13.476 Q 29.544 12.84 29.544 12.024 Z M 34.584 11.712 L 34.584 5.208 Q 34.512 4.992 34.332 4.728 Q 34.152 4.464 33.792 4.272 Q 33.432 4.08 32.808 4.08 Q 32.112 4.08 31.752 4.272 Q 31.392 4.464 31.236 4.788 Q 31.08 5.112 31.056 5.52 Q 31.032 5.928 31.032 6.36 L 31.032 12.216 Q 31.032 12.792 31.104 13.32 Q 31.176 13.848 31.536 14.172 Q 31.896 14.496 32.736 14.496 Q 33.432 14.496 33.816 14.244 Q 34.2 13.992 34.356 13.584 Q 34.512 13.176 34.548 12.684 Q 34.584 12.192 34.584 11.712 Z M 57.6 12.888 L 57.6 4.272 L 56.544 4.272 L 56.544 3.504 L 57.696 3.336 L 57.96 1.104 L 59.088 1.104 L 59.088 3.336 L 61.656 3.336 L 61.656 4.272 L 59.088 4.272 L 59.088 12.624 Q 59.088 13.296 59.328 13.752 Q 59.568 14.208 60.384 14.208 Q 60.72 14.208 61.104 14.172 Q 61.488 14.136 61.656 14.136 L 61.656 15.096 Q 61.464 15.096 60.984 15.168 Q 60.504 15.24 59.952 15.24 Q 59.424 15.24 58.992 15.12 Q 58.56 15 58.248 14.724 Q 57.936 14.448 57.768 14.004 Q 57.6 13.56 57.6 12.888 Z M 40.08 15.216 L 38.592 15.216 L 38.592 3.336 L 39.84 3.336 L 40.008 4.608 Q 40.272 3.936 40.872 3.648 Q 41.472 3.36 42.072 3.288 A 3.425 3.425 0 0 1 42.791 3.209 A 3.049 3.049 0 0 1 43.368 3.264 L 43.368 4.44 Q 43.272 4.416 43.032 4.392 Q 42.792 4.368 42.516 4.368 Q 42.24 4.368 42 4.464 Q 41.184 4.56 40.632 5.052 Q 40.08 5.544 40.08 6.384 L 40.08 15.216 Z M 64.68 15.216 L 63.192 15.216 L 63.192 3.336 L 64.44 3.336 L 64.608 4.608 Q 64.872 3.936 65.472 3.648 Q 66.072 3.36 66.672 3.288 A 3.425 3.425 0 0 1 67.391 3.209 A 3.049 3.049 0 0 1 67.968 3.264 L 67.968 4.44 Q 67.872 4.416 67.632 4.392 Q 67.392 4.368 67.116 4.368 Q 66.84 4.368 66.6 4.464 Q 65.784 4.56 65.232 5.052 Q 64.68 5.544 64.68 6.384 L 64.68 15.216 Z M 1.464 15.216 L 0 15.216 L 0 0 L 1.464 0 L 1.464 15.216 Z M 165.648 15.216 L 164.184 15.216 L 164.184 0 L 165.648 0 L 165.648 15.216 Z M 44.376 11.904 L 44.376 6.36 Q 44.376 4.632 45.132 3.888 Q 45.888 3.144 47.64 3.144 Q 49.392 3.144 50.148 3.864 Q 50.904 4.584 50.904 6.36 L 50.904 11.904 Q 50.904 13.248 50.568 14.004 Q 50.232 14.76 49.512 15.072 Q 48.792 15.384 47.64 15.384 Q 46.536 15.384 45.804 15.084 Q 45.072 14.784 44.724 14.016 Q 44.376 13.248 44.376 11.904 Z M 49.416 12.216 L 49.416 6.288 Q 49.416 5.112 49.032 4.596 Q 48.648 4.08 47.64 4.08 Q 46.704 4.08 46.284 4.572 Q 45.864 5.064 45.864 6.288 L 45.864 12.216 Q 45.864 13.464 46.284 13.956 Q 46.704 14.448 47.64 14.448 Q 48.6 14.448 49.008 13.968 Q 49.416 13.488 49.416 12.216 Z M 68.976 11.904 L 68.976 6.36 Q 68.976 4.632 69.732 3.888 Q 70.488 3.144 72.24 3.144 Q 73.992 3.144 74.748 3.864 Q 75.504 4.584 75.504 6.36 L 75.504 11.904 Q 75.504 13.248 75.168 14.004 Q 74.832 14.76 74.112 15.072 Q 73.392 15.384 72.24 15.384 Q 71.136 15.384 70.404 15.084 Q 69.672 14.784 69.324 14.016 Q 68.976 13.248 68.976 11.904 Z M 74.016 12.216 L 74.016 6.288 Q 74.016 5.112 73.632 4.596 Q 73.248 4.08 72.24 4.08 Q 71.304 4.08 70.884 4.572 Q 70.464 5.064 70.464 6.288 L 70.464 12.216 Q 70.464 13.464 70.884 13.956 Q 71.304 14.448 72.24 14.448 Q 73.2 14.448 73.608 13.968 Q 74.016 13.488 74.016 12.216 Z M 180.48 11.904 L 180.48 6.36 Q 180.48 4.632 181.236 3.888 Q 181.992 3.144 183.744 3.144 Q 185.496 3.144 186.252 3.864 Q 187.008 4.584 187.008 6.36 L 187.008 11.904 Q 187.008 13.248 186.672 14.004 Q 186.336 14.76 185.616 15.072 Q 184.896 15.384 183.744 15.384 Q 182.64 15.384 181.908 15.084 Q 181.176 14.784 180.828 14.016 Q 180.48 13.248 180.48 11.904 Z M 185.52 12.216 L 185.52 6.288 Q 185.52 5.112 185.136 4.596 Q 184.752 4.08 183.744 4.08 Q 182.808 4.08 182.388 4.572 Q 181.968 5.064 181.968 6.288 L 181.968 12.216 Q 181.968 13.464 182.388 13.956 Q 182.808 14.448 183.744 14.448 Q 184.704 14.448 185.112 13.968 Q 185.52 13.488 185.52 12.216 Z M 161.64 15.216 L 160.176 15.216 L 160.176 3.336 L 161.64 3.336 L 161.64 15.216 Z M 53.976 15.384 Q 54.36 15.384 54.636 15.12 Q 54.912 14.856 54.912 14.496 Q 54.912 14.136 54.636 13.872 Q 54.36 13.608 53.976 13.608 Q 53.592 13.608 53.328 13.872 Q 53.064 14.136 53.064 14.496 Q 53.064 14.856 53.328 15.12 Q 53.592 15.384 53.976 15.384 Z M 169.032 15.384 Q 169.416 15.384 169.692 15.12 Q 169.968 14.856 169.968 14.496 Q 169.968 14.136 169.692 13.872 Q 169.416 13.608 169.032 13.608 Q 168.648 13.608 168.384 13.872 Q 168.12 14.136 168.12 14.496 Q 168.12 14.856 168.384 15.12 Q 168.648 15.384 169.032 15.384 Z M 160.92 1.872 Q 160.56 1.872 160.308 1.62 Q 160.056 1.368 160.056 1.032 Q 160.056 0.672 160.308 0.444 Q 160.56 0.216 160.92 0.216 Q 161.256 0.216 161.52 0.444 Q 161.784 0.672 161.784 1.032 Q 161.784 1.368 161.52 1.62 Q 161.256 1.872 160.92 1.872 Z"
    />
  </g>
</svg>
